<svg xmlns="http://www.w3.org/2000/svg" viewBox="0 0 82 82" xmlns:xlink="http://www.w3.org/1999/xlink">
  <title>
    clipboard
  </title>
  <defs>
    <rect id="a" width="74" height="68" y="10" rx="12"/>
    <filter id="d" width="200%" height="200%" x="-50%" y="-50%" filterUnits="objectBoundingBox">
      <feOffset dx="-5" in="SourceAlpha" result="shadowOffsetInner1"/>
      <feComposite in="shadowOffsetInner1" in2="SourceAlpha" operator="arithmetic" k2="-1" k3="1" result="shadowInnerInner1"/>
      <feColorMatrix values="0 0 0 0 0.890196078 0 0 0 0 0.890196078 0 0 0 0 0.890196078 0 0 0 1 0" in="shadowInnerInner1"/>
    </filter>
    <mask id="e" width="74" height="68" x="0" y="0" fill="#fff">
      <use xlink:href="#a"/>
    </mask>
    <rect id="b" width="58" height="52" x="8" y="18" rx="3"/>
    <mask id="f" width="58" height="52" x="0" y="0" fill="#fff">
      <use xlink:href="#b"/>
    </mask>
    <path id="c" d="M28.118 8h-7.112C18.788 8 17 9.79 17 12v13c0 2.21 1.794 4 4.006 4h32.988C56.212 29 58 27.21 58 25V12c0-2.21-1.794-4-4.006-4h-7.112c-.72-4.534-4.646-8-9.382-8s-8.663 3.466-9.382 8zM37.5 9c.828 0 1.5-.672 1.5-1.5S38.328 6 37.5 6 36 6.672 36 7.5 36.672 9 37.5 9z"/>
    <mask id="g" width="41" height="29" x="0" y="0" fill="#fff">
      <use xlink:href="#c"/>
    </mask>
    <circle id="h" cx="21" cy="36" r="4"/>
    <filter id="i" width="200%" height="200%" x="-50%" y="-50%" filterUnits="objectBoundingBox">
      <feOffset dx="1" in="SourceAlpha" result="shadowOffsetInner1"/>
      <feComposite in="shadowOffsetInner1" in2="SourceAlpha" operator="arithmetic" k2="-1" k3="1" result="shadowInnerInner1"/>
      <feColorMatrix values="0 0 0 0 1 0 0 0 0 1 0 0 0 0 1 0 0 0 0.2 0" in="shadowInnerInner1"/>
    </filter>
    <circle id="j" cx="21" cy="46" r="4"/>
    <filter id="k" width="200%" height="200%" x="-50%" y="-50%" filterUnits="objectBoundingBox">
      <feOffset dx="1" in="SourceAlpha" result="shadowOffsetInner1"/>
      <feComposite in="shadowOffsetInner1" in2="SourceAlpha" operator="arithmetic" k2="-1" k3="1" result="shadowInnerInner1"/>
      <feColorMatrix values="0 0 0 0 1 0 0 0 0 1 0 0 0 0 1 0 0 0 0.2 0" in="shadowInnerInner1"/>
    </filter>
    <circle id="l" cx="21" cy="56" r="4"/>
    <filter id="m" width="200%" height="200%" x="-50%" y="-50%" filterUnits="objectBoundingBox">
      <feOffset dx="1" in="SourceAlpha" result="shadowOffsetInner1"/>
      <feComposite in="shadowOffsetInner1" in2="SourceAlpha" operator="arithmetic" k2="-1" k3="1" result="shadowInnerInner1"/>
      <feColorMatrix values="0 0 0 0 1 0 0 0 0 1 0 0 0 0 1 0 0 0 0.2 0" in="shadowInnerInner1"/>
    </filter>
  </defs>
  <g fill="none" fill-rule="evenodd" transform="translate(4 2)">
    <use fill="#F4F4F4" xlink:href="#a"/>
    <use fill="#000" filter="url(#d)" xlink:href="#a"/>
    <use stroke="#000" stroke-width="4" mask="url(#e)" xlink:href="#a"/>
    <use fill="#FFF" stroke="#000" stroke-width="4" mask="url(#f)" xlink:href="#b"/>
    <use fill="#EDECEC" stroke="#000" stroke-width="4" mask="url(#g)" xlink:href="#c"/>
    <rect width="28" height="4" x="28" y="34" fill="#D6D6D6" rx="2"/>
    <rect width="28" height="4" x="28" y="44" fill="#D6D6D6" rx="2"/>
    <rect width="28" height="4" x="28" y="54" fill="#D6D6D6" rx="2"/>
    <use fill="#FF6175" xlink:href="#h"/>
    <use fill="#000" filter="url(#i)" xlink:href="#h"/>
    <g>
      <use fill="#3F9BB8" xlink:href="#j"/>
      <use fill="#000" filter="url(#k)" xlink:href="#j"/>
    </g>
    <g>
      <use fill="#FFCD72" xlink:href="#l"/>
      <use fill="#000" filter="url(#m)" xlink:href="#l"/>
    </g>
  </g>
</svg>
