<svg xmlns="http://www.w3.org/2000/svg" viewBox="0 0 82 82" xmlns:xlink="http://www.w3.org/1999/xlink">
  <defs>
    <path id="a" d="M6 39v28.007C6 68.652 7.346 70 9.007 70h59.986C70.653 70 72 68.66 72 67.007V39L39 4 6 39z"/>
    <mask id="k" width="66" height="66" x="0" y="0" fill="#fff">
      <use xlink:href="#a"/>
    </mask>
    <path id="b" d="M39.012.072c-1.278 0-2.557.485-3.532 1.46L1.532 35.48c-1.95 1.95-1.95 5.115.004 7.068 1.948 1.948 5.116 1.954 7.067.003l30.41-30.408 30.408 30.41c1.95 1.95 5.116 1.948 7.07-.004 1.948-1.95 1.953-5.117.002-7.068L42.544 1.532c-.974-.974-2.252-1.46-3.53-1.46h-.002z"/>
    <mask id="l" width="77.882" height="43.942" x="0" y="0" fill="#fff">
      <use xlink:href="#b"/>
    </mask>
    <path id="c" d="M43 36h18v34H43z"/>
    <mask id="m" width="18" height="34" x="0" y="0" fill="#fff">
      <use xlink:href="#c"/>
    </mask>
    <path id="d" d="M47 41h10v10H47z"/>
    <filter id="n" width="200%" height="200%" x="-50%" y="-50%" filterUnits="objectBoundingBox">
      <feOffset dy="1" in="SourceAlpha" result="shadowOffsetOuter1"/>
      <feComposite in="shadowOffsetOuter1" in2="SourceAlpha" operator="out" result="shadowOffsetOuter1"/>
      <feColorMatrix values="0 0 0 0 0 0 0 0 0 0 0 0 0 0 0 0 0 0 0.1 0" in="shadowOffsetOuter1"/>
    </filter>
    <mask id="o" width="10" height="10" x="0" y="0" fill="#fff">
      <use xlink:href="#d"/>
    </mask>
    <path id="e" d="M40.835 64.99c.09-.546.604-.99 1.167-.99h19.996c.553 0 1.077.45 1.167.99l.67 4.02c.09.546-.282.99-.836.99H41c-.552 0-.925-.45-.835-.99l.67-4.02z"/>
    <mask id="p" width="23.697" height="6" x="0" y="0" fill="#fff">
      <use xlink:href="#e"/>
    </mask>
    <rect id="f" width="18" height="6" x="16" y="58" rx="1"/>
    <filter id="q" width="200%" height="200%" x="-50%" y="-50%" filterUnits="objectBoundingBox">
      <feOffset dy="1" in="SourceAlpha" result="shadowOffsetOuter1"/>
      <feComposite in="shadowOffsetOuter1" in2="SourceAlpha" operator="out" result="shadowOffsetOuter1"/>
      <feColorMatrix values="0 0 0 0 0 0 0 0 0 0 0 0 0 0 0 0 0 0 0.07 0" in="shadowOffsetOuter1"/>
    </filter>
    <mask id="r" width="18" height="6" x="0" y="0" fill="#fff">
      <use xlink:href="#f"/>
    </mask>
    <path id="g" d="M18 40h14v20H18z"/>
    <mask id="s" width="14" height="20" x="0" y="0" fill="#fff">
      <use xlink:href="#g"/>
    </mask>
    <path id="h" d="M40 24h10v6H40z"/>
    <mask id="t" width="10" height="6" x="0" y="0" fill="#fff">
      <use xlink:href="#h"/>
    </mask>
    <path id="i" d="M26 31h10v6H26z"/>
    <mask id="u" width="10" height="6" x="0" y="0" fill="#fff">
      <use xlink:href="#i"/>
    </mask>
    <path id="j" d="M7 53h6v6H7z"/>
    <mask id="v" width="6" height="6" x="0" y="0" fill="#fff">
      <use xlink:href="#j"/>
    </mask>
  </defs>
  <g fill="none" fill-rule="evenodd" transform="translate(2 6)">
    <use fill="#FFF" stroke="#000" stroke-width="4" mask="url(#k)" xlink:href="#a"/>
    <path fill="#000" fill-opacity=".07" d="M6 46.926V39L39 4l33 35v7.922c-.945-.183-1.848-.64-2.58-1.37L39.013 15.14l-30.41 30.41c-.736.737-1.648 1.195-2.602 1.374z"/>
    <use fill="#E3E3E3" stroke="#000" stroke-width="4" mask="url(#l)" xlink:href="#b"/>
    <use fill="#FF6175" stroke="#000" stroke-width="4" mask="url(#m)" xlink:href="#c"/>
    <use fill="#000" filter="url(#n)" xlink:href="#d"/>
    <use fill="#FFCD72" stroke="#000" stroke-width="4" mask="url(#o)" xlink:href="#d"/>
    <use fill="#B9B6AD" stroke="#000" stroke-width="4" mask="url(#p)" xlink:href="#e"/>
    <use fill="#000" filter="url(#q)" xlink:href="#f"/>
    <use fill="#B9B6AD" stroke="#000" stroke-width="4" mask="url(#r)" xlink:href="#f"/>
    <use fill="#FFCD72" stroke="#000" stroke-width="4" mask="url(#s)" xlink:href="#g"/>
    <circle cx="48" cy="54" r="1" fill="#000"/>
    <path stroke="#000" stroke-width="2" d="M20 48h10" stroke-linecap="square"/>
    <use fill="#DCDBD7" stroke="#000" stroke-width="2" mask="url(#t)" xlink:href="#h"/>
    <use fill="#DCDBD7" stroke="#000" stroke-width="2" mask="url(#u)" xlink:href="#i"/>
    <use fill="#DCDBD7" stroke="#000" stroke-width="2" mask="url(#v)" xlink:href="#j"/>
  </g>
</svg>
