<svg xmlns="http://www.w3.org/2000/svg" viewBox="0 0 82 82" xmlns:xlink="http://www.w3.org/1999/xlink">
  <defs>
    <rect id="a" width="11" height="11" x="50" y="27" rx="3"/>
    <mask id="i" width="11" height="11" x="0" y="0" fill="#fff">
      <use xlink:href="#a"/>
    </mask>
    <rect id="b" width="11" height="11" x="7" y="27" rx="3"/>
    <mask id="j" width="11" height="11" x="0" y="0" fill="#fff">
      <use xlink:href="#b"/>
    </mask>
    <path id="c" d="M67.59 75.743c.27-1.22.41-2.47.41-3.743 0-13.255-15.222-24-34-24S0 58.745 0 72c0 1.1.105 2.185.308 3.247 1.49.49 3.08.753 4.733.753h59.757c.954 0 1.887-.088 2.792-.257z"/>
    <filter id="k" width="200%" height="200%" x="-50%" y="-50%" filterUnits="objectBoundingBox">
      <feOffset dx="-19" in="SourceAlpha" result="shadowOffsetInner1"/>
      <feComposite in="shadowOffsetInner1" in2="SourceAlpha" operator="arithmetic" k2="-1" k3="1" result="shadowInnerInner1"/>
      <feColorMatrix values="0 0 0 0 0 0 0 0 0 0 0 0 0 0 0 0 0 0 0.15 0" in="shadowInnerInner1"/>
    </filter>
    <mask id="l" width="68" height="28" x="0" y="0" fill="#fff">
      <use xlink:href="#c"/>
    </mask>
    <rect id="d" width="40" height="52" x="14" y="3" rx="20"/>
    <mask id="m" width="44" height="56" x="-2" y="-2">
      <path fill="#fff" d="M12 1h44v56H12z"/>
      <use xlink:href="#d"/>
    </mask>
    <mask id="n" width="40" height="52" x="0" y="0" fill="#fff">
      <use xlink:href="#d"/>
    </mask>
    <circle id="e" cx="34" cy="52" r="13"/>
    <mask id="o" width="26" height="26" x="0" y="0" fill="#fff">
      <use xlink:href="#e"/>
    </mask>
    <rect id="f" width="40" height="52" x="14" y="3" rx="20"/>
    <mask id="p" width="44" height="56" x="-2" y="-2">
      <path fill="#fff" d="M12 1h44v56H12z"/>
      <use xlink:href="#f"/>
    </mask>
    <mask id="q" width="40" height="52" x="0" y="0" fill="#fff">
      <use xlink:href="#f"/>
    </mask>
    <rect id="g" width="40" height="52" x="14" y="5" rx="20"/>
    <mask id="r" width="44" height="56" x="-2" y="-2">
      <path fill="#fff" d="M12 3h44v56H12z"/>
      <use xlink:href="#g"/>
    </mask>
    <mask id="s" width="40" height="52" x="0" y="0" fill="#fff">
      <use xlink:href="#g"/>
    </mask>
    <path id="h" d="M12.35 12.092C11.495 10.72 11 9.105 11 7.38c0-2.993 1.483-5.643 3.76-7.28C18.376.914 22.552 1.38 27 1.38c4.626 0 8.96-.504 12.676-1.38 1.293.894 2.342 2.11 3.024 3.53 1.168-.815 2.594-1.294 4.133-1.294C50.79 2.236 54 5.402 54 9.306c0 1.194-.3 2.317-.827 3.303C55.58 15.91 57 19.974 57 24.37v1.987c-1.064-.084-2.076-.433-3-.998v-.99c0-3.517-.91-6.822-2.505-9.694-1.253 1.06-2.88 1.7-4.662 1.7-2.347 0-4.43-1.112-5.737-2.833-1.665 1.745-4.025 2.834-6.638 2.834h-14.34c-1.445 0-2.81-.333-4.024-.925C14.754 18.14 14 21.168 14 24.372v4.97c-2.803-.413-5-4.268-5-8.963 0-3.724 1.38-6.92 3.35-8.288z"/>
    <mask id="t" width="52" height="33.342" x="-2" y="-2">
      <path fill="#fff" d="M7-2h52v33.342H7z"/>
      <use xlink:href="#h"/>
    </mask>
  </defs>
  <g fill="none" fill-rule="evenodd">
    <g transform="translate(7 4)">
      <use fill="#D9B093" stroke="#000" stroke-width="4" mask="url(#i)" xlink:href="#a"/>
      <use fill="#D9B093" stroke="#000" stroke-width="4" mask="url(#j)" xlink:href="#b"/>
      <use fill="#3F9BB8" xlink:href="#c"/>
      <use fill="#000" filter="url(#k)" xlink:href="#c"/>
      <use stroke="#000" stroke-width="4" mask="url(#l)" xlink:href="#c"/>
      <use fill="#F4F4F4" xlink:href="#d"/>
      <use stroke="#000" stroke-width="4" mask="url(#m)" xlink:href="#d"/>
      <use stroke="#E3E3E3" stroke-width="4" mask="url(#n)" xlink:href="#d"/>
      <use fill="#D9B093" stroke="#000" stroke-width="4" mask="url(#o)" xlink:href="#e"/>
      <use fill="#F4F4F4" xlink:href="#f"/>
      <use stroke="#000" stroke-width="4" mask="url(#p)" xlink:href="#f"/>
      <use stroke="#E3E3E3" stroke-width="4" mask="url(#q)" xlink:href="#f"/>
      <g>
        <use fill="#EFC2A3" xlink:href="#g"/>
        <use stroke="#000" stroke-width="4" mask="url(#r)" xlink:href="#g"/>
        <use stroke="#D9B093" stroke-width="4" mask="url(#s)" xlink:href="#g"/>
      </g>
      <g>
        <use fill="#FFCD72" xlink:href="#h"/>
        <use stroke="#000" stroke-width="4" mask="url(#t)" xlink:href="#h"/>
      </g>
      <path fill="#D9B093" d="M52.198 45.526c-3.2 6.78-10.1 11.474-18.1 11.474C26.1 57 19.2 52.306 16 45.526 20.68 43.343 27.063 42 34.098 42c7.036 0 13.42 1.343 18.1 3.526z"/>
      <g fill="#000" transform="translate(27 30)">
        <ellipse cx="1.5" cy="3" rx="1.5" ry="3"/>
        <ellipse cx="12.5" cy="3" rx="1.5" ry="3"/>
      </g>
      <path stroke="#000" stroke-width="2" d="M29 49s2.62 1 5.108 1C36.598 50 39 49 39 49" stroke-linecap="round"/>
    </g>
    <path stroke="#D9B093" stroke-width="2" d="M44 42h5M33 42h5" stroke-linecap="round"/>
  </g>
</svg>
